<?xml version="1.0" standalone="no"?>
<!DOCTYPE svg PUBLIC "-//W3C//DTD SVG 20010904//EN"
 "http://www.w3.org/TR/2001/REC-SVG-20010904/DTD/svg10.dtd">
<svg version="1.0" xmlns="http://www.w3.org/2000/svg"
 width="700.000000pt" height="700.000000pt" viewBox="0 0 700.000000 700.000000"
 preserveAspectRatio="xMidYMid meet">
<metadata>
Created by potrace 1.14, written by Peter Selinger 2001-2017
</metadata>
<g transform="translate(0.000000,700.000000) scale(0.100000,-0.100000)"
fill="#000000" stroke="none">
<path d="M3278 6996 c-1 -2 -39 -6 -83 -10 -646 -50 -1315 -312 -1841 -722
-444 -346 -827 -830 -1039 -1314 -25 -58 -52 -118 -59 -135 -51 -115 -148
-423 -171 -546 -3 -13 -11 -58 -20 -99 -29 -147 -36 -199 -52 -370 -15 -164
-8 -592 12 -711 2 -13 6 -46 9 -74 27 -233 116 -567 225 -840 63 -156 243
-501 298 -570 4 -6 34 -49 65 -95 52 -78 214 -285 263 -336 192 -203 294 -298
445 -419 92 -74 370 -265 386 -265 4 0 15 -6 23 -14 27 -23 259 -139 390 -195
269 -116 598 -208 880 -247 25 -3 57 -8 71 -10 163 -25 682 -25 842 1 13 2 46
7 73 10 72 10 86 12 120 19 17 3 44 8 60 11 727 138 1438 543 1935 1104 36 41
70 79 76 85 29 30 185 242 240 326 120 184 241 412 315 597 66 163 147 422
175 558 16 79 54 301 59 350 4 33 9 71 11 85 9 47 11 525 3 605 -15 165 -21
220 -24 225 -2 3 -6 30 -10 60 -3 30 -10 71 -15 90 -5 19 -12 51 -15 70 -39
229 -167 592 -304 863 -212 418 -534 823 -871 1097 -30 25 -57 47 -60 51 -3 3
-50 40 -106 81 -288 214 -632 393 -969 506 -168 57 -420 119 -555 137 -19 3
-46 7 -60 10 -13 2 -52 7 -86 11 -33 3 -74 8 -90 10 -32 5 -540 14 -546 10z
m-223 -345 c-11 -5 -72 -21 -135 -36 -527 -127 -1058 -428 -1469 -833 -96 -95
-131 -132 -240 -257 -15 -16 -65 -82 -112 -145 -395 -530 -625 -1121 -688
-1767 -9 -92 -6 -556 4 -633 9 -72 35 -219 51 -300 9 -41 17 -84 20 -95 2 -11
10 -42 18 -69 25 -81 1 -38 -37 69 -58 164 -105 338 -127 475 -6 41 -13 86
-16 100 -14 88 -19 192 -19 390 0 257 5 327 40 525 26 146 46 228 89 370 250
824 845 1539 1591 1914 259 130 545 225 792 265 73 12 214 31 248 34 6 0 1 -3
-10 -7z m1585 -596 c14 -8 21 -14 15 -14 -5 0 -21 6 -35 14 -14 8 -20 14 -15
14 6 0 21 -6 35 -14z m160 -78 c94 -50 318 -187 343 -210 6 -7 31 -26 55 -43
149 -109 386 -344 514 -509 108 -141 217 -316 296 -475 82 -166 84 -170 131
-300 30 -84 95 -311 104 -366 20 -112 38 -229 44 -284 16 -134 7 -605 -12
-695 -6 -24 -13 -67 -21 -115 -22 -147 -110 -432 -183 -598 -73 -165 -186
-368 -269 -482 -60 -82 -108 -146 -117 -156 -5 -7 -26 -31 -45 -55 -64 -80
-284 -294 -385 -375 -91 -72 -178 -133 -320 -223 -87 -56 -345 -178 -475 -224
-138 -50 -370 -114 -445 -123 -9 -1 -53 -8 -120 -19 -11 -1 -54 -6 -95 -10
-41 -4 -86 -9 -100 -11 -87 -15 -438 -2 -581 21 -13 2 -58 9 -99 15 -81 13
-305 68 -385 95 -564 192 -1032 529 -1379 995 -27 36 -53 71 -59 78 -5 6 -7
12 -4 12 3 0 36 -39 73 -87 84 -109 117 -146 229 -258 103 -103 174 -168 227
-207 20 -15 42 -33 50 -40 34 -32 209 -148 310 -206 885 -509 1987 -486 2857
59 234 148 517 399 685 609 187 235 349 522 448 795 45 125 110 361 109 400 0
2 4 19 9 36 5 17 12 57 16 88 3 31 8 65 10 76 33 161 21 626 -21 835 -22 112
-29 144 -47 210 -106 401 -278 740 -539 1060 -231 284 -535 533 -856 700 -80
41 -103 57 -65 43 9 -3 60 -29 112 -56z m-1020 -192 c48 -5 90 -14 150 -30 8
-2 90 -29 181 -59 92 -31 184 -56 206 -56 47 0 79 20 87 57 26 106 22 101 71
100 34 0 45 -4 46 -16 1 -21 1 -972 0 -988 -1 -8 -15 -13 -35 -13 -33 0 -34 2
-46 53 -36 160 -116 353 -186 448 -37 50 -148 155 -209 196 -154 104 -366 137
-542 84 -216 -65 -365 -273 -365 -511 -1 -171 59 -329 165 -439 80 -82 297
-219 577 -363 188 -97 198 -103 340 -193 303 -194 471 -405 534 -675 18 -80
19 -316 1 -448 -14 -101 -36 -162 -103 -292 -84 -161 -158 -244 -324 -363 -37
-26 -58 -48 -59 -61 -2 -67 -28 -186 -51 -236 -77 -170 -140 -273 -211 -342
-246 -240 -521 -360 -844 -367 -176 -4 -344 36 -628 149 -184 73 -198 76 -231
50 -19 -16 -51 -125 -53 -178 -1 -21 -5 -23 -52 -20 l-51 3 1 600 c0 330 0
608 0 618 1 14 11 17 69 17 l68 0 12 -67 c7 -38 15 -81 18 -98 45 -252 96
-391 201 -548 147 -218 395 -329 698 -314 188 10 329 69 437 184 163 175 202
463 94 699 -70 153 -173 260 -386 400 -137 89 -282 174 -300 174 -7 0 -216
114 -279 152 -180 108 -304 214 -396 339 -72 98 -98 156 -136 309 -16 64 -18
105 -15 280 4 223 4 228 42 345 67 203 194 370 378 494 74 50 76 53 76 92 0
80 49 248 102 352 61 121 217 284 346 360 176 106 383 148 602 122z m2363
-460 c262 -340 448 -760 537 -1214 11 -57 23 -126 26 -155 3 -28 8 -62 10 -76
23 -134 23 -631 0 -755 -2 -11 -7 -45 -11 -75 -4 -30 -9 -62 -10 -70 -8 -41
-35 -187 -39 -205 -2 -11 -12 -49 -21 -85 -230 -900 -803 -1632 -1584 -2025
-50 -25 -93 -45 -97 -45 -3 0 51 39 122 86 215 144 323 233 507 419 372 375
663 861 826 1375 30 94 76 262 85 310 3 14 12 59 20 100 8 41 17 95 21 120 3
25 8 52 10 60 7 25 22 175 30 285 6 84 6 404 1 460 -3 22 -7 72 -11 110 -13
145 -37 289 -72 435 -13 58 -26 110 -27 115 -4 19 -39 130 -68 220 -66 196
-197 472 -306 640 -93 144 -75 133 51 -30z"/>
<path d="M2714 4536 c-103 -158 -91 -450 26 -626 86 -129 281 -263 680 -467
263 -134 438 -252 575 -388 118 -116 196 -237 241 -374 20 -62 26 -57 50 45
32 139 17 286 -43 424 -27 62 -106 173 -168 235 -82 83 -417 306 -496 330 -26
8 -197 101 -327 178 -101 59 -228 159 -299 236 -104 111 -163 219 -199 361 -9
36 -18 67 -19 68 -2 2 -11 -8 -21 -22z"/>
</g>
</svg>
